<svg width="7" height="6" viewBox="0 0 7 6" fill="none" xmlns="http://www.w3.org/2000/svg">
<path fill-rule="evenodd" clip-rule="evenodd" d="M3.06066 1.35355C3.25592 1.15829 3.25592 0.841709 3.06066 0.646447C2.8654 0.451184 2.54882 0.451184 2.35355 0.646447L0.353553 2.64645L0 3L0.353553 3.35355L2.35355 5.35355C2.54882 5.54882 2.8654 5.54882 3.06066 5.35355C3.25592 5.15829 3.25592 4.84171 3.06066 4.64645L1.41421 3L3.06066 1.35355ZM6.06066 1.35355C6.25592 1.15829 6.25592 0.841709 6.06066 0.646447C5.8654 0.451184 5.54882 0.451184 5.35355 0.646447L3.35355 2.64645L3 3L3.35355 3.35355L5.35355 5.35355C5.54882 5.54882 5.8654 5.54882 6.06066 5.35355C6.25592 5.15829 6.25592 4.84171 6.06066 4.64645L4.41421 3L6.06066 1.35355Z" fill="#2062AF"/>
</svg>
