<svg width="166" height="48" viewBox="0 0 166 48" fill="none" xmlns="http://www.w3.org/2000/svg">
<g clip-path="url(#clip0_2_486)">
<path d="M0 32.294V26.645L9.53469 18.0572V17.6654H0.391837V12.0491H18.1224V17.6981L8.58775 26.2532V26.645H18.5143V32.294H0Z" fill="#418BCA"/>
<path d="M21.4531 32.2939V12.049H28.0817V14.7919H28.4735C28.8327 14.1714 29.2899 13.6163 29.8776 13.1592C31.2164 12.049 32.7511 11.4939 34.5143 11.4939C36.898 11.4939 38.7592 12.2123 40.098 13.649C41.4368 15.0857 42.0899 17.1755 42.0899 19.8531V32.3265H35.4613V20.8C35.4613 19.6245 35.1348 18.7102 34.5143 18.0572C33.8939 17.4041 33.045 17.0776 31.9348 17.0776C30.8246 17.0776 29.8776 17.5021 29.1592 18.3184C28.4082 19.1347 28.049 20.2123 28.049 21.5837V32.2939H21.4531Z" fill="#418BCA"/>
<path d="M47.6406 29.9428C45.91 27.9836 45.0283 25.404 45.0283 22.1714C45.0283 18.9387 45.91 16.3591 47.6406 14.4C49.3712 12.4408 51.4936 11.4612 54.0079 11.4612C55.6079 11.4612 57.1426 12.0163 58.5793 13.1265C59.1671 13.6163 59.6569 14.1714 60.0487 14.7591H60.4406V12.0163H67.0691V32.2938H60.4079V29.551H60.0161C59.6569 30.1714 59.1671 30.7265 58.5467 31.2163C57.1426 32.2938 55.6079 32.8489 53.9753 32.8489C51.4936 32.8816 49.3712 31.902 47.6406 29.9428ZM53.0283 18.4163C52.2446 19.2979 51.8528 20.5387 51.8528 22.1714C51.8528 23.7714 52.2446 25.0449 53.0283 25.9265C53.812 26.8081 54.8569 27.2653 56.163 27.2653C57.4691 27.2653 58.514 26.8081 59.2977 25.9265C60.0814 25.0449 60.4732 23.804 60.4732 22.1714C60.4732 20.5714 60.0814 19.2979 59.2977 18.4163C58.514 17.5347 57.4691 17.0775 56.163 17.0775C54.8569 17.0775 53.812 17.5347 53.0283 18.4163Z" fill="#418BCA"/>
<path d="M70.9551 32.2939V12.049H77.5837V14.7919H77.9755C78.3347 14.1714 78.7918 13.6163 79.3796 13.1592C80.7183 12.049 82.253 11.4939 84.0163 11.4939C86.4 11.4939 88.2612 12.2123 89.6 13.649C90.9387 15.0857 91.5918 17.1755 91.5918 19.8531V32.3265H84.9632V20.8C84.9632 19.6245 84.6367 18.7102 84.0163 18.0572C83.3959 17.4041 82.5469 17.0776 81.4367 17.0776C80.3265 17.0776 79.3796 17.5021 78.6612 18.3184C77.9102 19.1347 77.551 20.2123 77.551 21.5837V32.2939H70.9551Z" fill="#418BCA"/>
<path d="M95.1182 6.56334C95.1182 5.6164 95.4774 4.83273 96.1631 4.21232C96.8488 3.59191 97.7631 3.26538 98.808 3.26538C99.8855 3.26538 100.767 3.59191 101.453 4.21232C102.139 4.86538 102.498 5.64905 102.498 6.56334C102.498 7.47763 102.139 8.2613 101.453 8.91436C100.767 9.56742 99.8529 9.89395 98.808 9.89395C97.7304 9.89395 96.8488 9.56742 96.1631 8.91436C95.4774 8.2613 95.1182 7.47763 95.1182 6.56334ZM95.51 32.294V12.0491H102.139V32.3266L95.51 32.294Z" fill="#418BCA"/>
<path d="M106.221 24.5225V12.0491H112.849V23.5429C112.849 24.7185 113.176 25.6327 113.796 26.2858C114.417 26.9389 115.266 27.2654 116.376 27.2654C117.486 27.2654 118.433 26.8409 119.151 26.0246C119.902 25.2083 120.262 24.1307 120.262 22.7593V12.0491H126.89V32.3266H120.262V29.5838H119.87C119.543 30.2368 119.053 30.7919 118.466 31.2491C117.159 32.3266 115.625 32.8817 113.829 32.8817C111.445 32.8817 109.584 32.1634 108.245 30.7266C106.906 29.2899 106.221 27.2001 106.221 24.5225Z" fill="#418BCA"/>
<path d="M130.775 32.2939V12.049H137.404V14.7919H137.796C138.155 14.1388 138.612 13.5837 139.135 13.1592C140.408 12.049 141.91 11.4939 143.641 11.4939C145.73 11.4939 147.461 12.1143 148.735 13.3551C149.29 13.8776 149.714 14.498 150.073 15.1837H150.465C150.792 14.498 151.216 13.9102 151.739 13.3551C152.979 12.1143 154.645 11.4939 156.702 11.4939C159.086 11.4939 160.947 12.2123 162.286 13.649C163.624 15.0857 164.277 17.1755 164.277 19.8531V32.3265H157.649V20.8C157.649 18.3184 156.604 17.1102 154.514 17.1102C153.404 17.1102 152.49 17.5021 151.837 18.2531C151.151 19.0041 150.824 20.049 150.824 21.4204V32.3265H144.196V20.8C144.196 18.3184 143.151 17.1102 141.061 17.1102C139.951 17.1102 139.037 17.5021 138.384 18.2531C137.698 19.0041 137.371 20.049 137.371 21.4204V32.3265L130.775 32.2939Z" fill="#418BCA"/>
<path d="M0 41.2734H0.783673C0.84898 41.4693 0.979592 41.6653 1.1102 41.7959C1.43673 42.1551 1.86122 42.3183 2.38367 42.3183C2.80816 42.3183 3.16735 42.1877 3.46122 41.9265C3.7551 41.6653 3.91837 41.3061 4.01633 40.8489H1.99184V40.1632H3.98367C3.91837 39.7387 3.72245 39.4122 3.46122 39.151C3.16735 38.8898 2.84082 38.7591 2.38367 38.7591C1.86122 38.7591 1.46939 38.9224 1.14286 39.2489C1.01224 39.4122 0.881633 39.5428 0.816326 39.7387H0.0326531C0.130612 39.4449 0.261224 39.151 0.457143 38.8898C0.914286 38.3346 1.53469 38.0408 2.35102 38.0408C3.03673 38.0408 3.59184 38.2693 4.08163 38.7591C4.53878 39.2489 4.76735 39.8367 4.76735 40.5551C4.76735 41.2734 4.53878 41.8612 4.08163 42.351C3.62449 42.8408 3.03673 43.0693 2.35102 43.0693C1.53469 43.0693 0.881633 42.7755 0.42449 42.1877C0.228571 41.8938 0.0979592 41.6 0 41.2734Z" fill="#418BCA"/>
<path d="M5.25684 42.9713L6.59561 38.1387H8.6201L9.95888 42.9713H9.14255L8.065 38.857H7.18337L6.07316 42.9713H5.25684Z" fill="#418BCA"/>
<path d="M11.1998 42.351C10.7427 41.8612 10.4814 41.2734 10.4814 40.5551C10.4814 39.8367 10.71 39.2489 11.1998 38.7591C11.657 38.2693 12.2447 38.0408 12.9631 38.0408C13.6814 38.0408 14.2365 38.2693 14.7263 38.7591C15.1835 39.2163 15.4447 39.804 15.4447 40.5224V40.8163H11.2651C11.3304 41.2734 11.4937 41.6326 11.8202 41.9265C12.1468 42.2204 12.5059 42.351 12.9631 42.351C13.4529 42.351 13.8447 42.2204 14.2039 41.9265C14.3672 41.7959 14.4651 41.6653 14.5631 41.502H15.3468C15.2161 41.7959 15.0529 42.0571 14.857 42.3183C14.3672 42.8408 13.7141 43.102 12.9957 43.102C12.2447 43.0693 11.657 42.8081 11.1998 42.351ZM11.2651 40.0979H14.5957C14.5304 39.7061 14.3672 39.4122 14.0733 39.151C13.7794 38.8898 13.4202 38.7591 12.9631 38.7591C12.5059 38.7591 12.1468 38.8898 11.8529 39.151C11.5263 39.4122 11.3304 39.7387 11.2651 40.0979Z" fill="#418BCA"/>
<path d="M16.4902 42.9713V38.1387H17.2739V40.0652H18.2535L19.7882 38.1387H20.7025L18.9066 40.4244L20.8331 42.9713H19.8535L18.2208 40.7836H17.2413V42.9713H16.4902Z" fill="#418BCA"/>
<path d="M20.9307 38.857V38.1387H25.0776V38.857H23.3796V42.9713H22.596V38.857H20.9307Z" fill="#418BCA"/>
<path d="M25.7959 44.8V38.1388H26.5796V38.9225L26.6775 38.7919C26.7755 38.6286 26.9714 38.4653 27.2653 38.3021C27.5592 38.1388 27.8857 38.0735 28.3102 38.0735C28.9632 38.0735 29.4857 38.3021 29.9428 38.7919C30.4 39.2817 30.6286 39.8694 30.6286 40.5878C30.6286 41.3061 30.4 41.8939 29.9428 42.3837C29.4857 42.8735 28.9306 43.1021 28.3102 43.1021C27.8857 43.1021 27.5592 43.0368 27.2653 42.8735C26.9714 42.7102 26.7755 42.547 26.6775 42.3837L26.5796 42.2531V44.8653H25.7959V44.8ZM27.0367 39.249C26.7102 39.5755 26.5796 40 26.5796 40.5225C26.5796 41.0449 26.7428 41.4694 27.0367 41.7959C27.3306 42.1225 27.7551 42.2857 28.2122 42.2857C28.6694 42.2857 29.0612 42.1225 29.3877 41.7959C29.7143 41.4694 29.8449 41.0449 29.8449 40.5225C29.8449 40 29.6816 39.5755 29.3877 39.249C29.0612 38.9225 28.6694 38.7592 28.2122 38.7592C27.7551 38.7592 27.3632 38.9225 27.0367 39.249Z" fill="#418BCA"/>
<path d="M32.1305 42.351C31.6407 41.8612 31.4121 41.2734 31.4121 40.5551C31.4121 39.8367 31.6407 39.2489 32.1305 38.7591C32.6203 38.2693 33.208 38.0408 33.9264 38.0408C34.6448 38.0408 35.2325 38.2693 35.7223 38.7591C36.2121 39.2489 36.4407 39.8367 36.4407 40.5551C36.4407 41.2734 36.2121 41.8612 35.7223 42.351C35.2325 42.8408 34.6448 43.0693 33.9264 43.0693C33.208 43.0693 32.5876 42.8081 32.1305 42.351ZM32.6529 39.2489C32.3264 39.5755 32.1631 40 32.1631 40.5224C32.1631 41.0449 32.3264 41.4693 32.6529 41.7959C32.9795 42.1224 33.4039 42.2857 33.8937 42.2857C34.3835 42.2857 34.808 42.1224 35.1346 41.7959C35.4611 41.4693 35.6244 41.0449 35.6244 40.5224C35.6244 40 35.4611 39.5755 35.1346 39.2489C34.808 38.9224 34.3835 38.7591 33.8937 38.7591C33.4039 38.7591 33.0121 38.9224 32.6529 39.2489Z" fill="#418BCA"/>
<path d="M37.4854 42.9713V38.1387H38.269V40.1305H40.9792V38.1387H41.7629V42.9713H40.9792V40.8489H38.269V42.9713H37.4854Z" fill="#418BCA"/>
<path d="M43.1016 42.9713V38.1387H43.8852V40.1305H46.5954V38.1387H47.3791V42.9713H46.5954V40.8489H43.8852V42.9713H43.1016Z" fill="#418BCA"/>
<path d="M49.11 42.351C48.6202 41.8612 48.3916 41.2734 48.3916 40.5551C48.3916 39.8367 48.6202 39.2489 49.11 38.7591C49.5998 38.2693 50.1875 38.0408 50.9059 38.0408C51.6243 38.0408 52.212 38.2693 52.7018 38.7591C53.1916 39.2489 53.4202 39.8367 53.4202 40.5551C53.4202 41.2734 53.1916 41.8612 52.7018 42.351C52.212 42.8408 51.6243 43.0693 50.9059 43.0693C50.1875 43.0693 49.5998 42.8081 49.11 42.351ZM49.6651 39.2489C49.3385 39.5755 49.1753 40 49.1753 40.5224C49.1753 41.0449 49.3385 41.4693 49.6651 41.7959C49.9916 42.1224 50.4161 42.2857 50.9059 42.2857C51.3957 42.2857 51.8202 42.1224 52.1467 41.7959C52.4732 41.4693 52.6365 41.0449 52.6365 40.5224C52.6365 40 52.4732 39.5755 52.1467 39.2489C51.8202 38.9224 51.3957 38.7591 50.9059 38.7591C50.4161 38.7591 49.9916 38.9224 49.6651 39.2489Z" fill="#418BCA"/>
<path d="M54.4004 40.6858V39.9021H57.8943V40.6858H54.4004Z" fill="#418BCA"/>
<path d="M58.8408 40.3591C58.8408 38.8897 59.102 37.8448 59.6571 37.1918C60.1796 36.5387 60.9959 36.2122 62.0408 36.2122H63.1837V37.0285H62.0408C61.2898 37.0285 60.702 37.1917 60.3102 37.5509C59.9184 37.9101 59.6898 38.4979 59.6245 39.2815C59.7225 39.1509 59.8531 39.0203 60.0163 38.8897C60.3755 38.6285 60.8 38.4979 61.3225 38.4979C61.9755 38.4979 62.5306 38.7264 62.9551 39.1509C63.3796 39.5754 63.6082 40.1305 63.6082 40.7836C63.6082 41.4366 63.3796 41.9917 62.9551 42.4162C62.498 42.8407 61.9429 43.0693 61.2571 43.0693C60.5388 43.0693 59.9837 42.8407 59.5265 42.3509C59.0694 41.8611 58.8408 41.2081 58.8408 40.3591ZM60.0816 39.6734C59.7878 39.9673 59.6245 40.3264 59.6245 40.7836C59.6245 41.2081 59.7878 41.5999 60.0816 41.8938C60.3755 42.1877 60.7674 42.3509 61.2245 42.3509C61.6816 42.3509 62.0735 42.1877 62.3674 41.8938C62.6612 41.5999 62.8245 41.2407 62.8245 40.7836C62.8245 40.3591 62.6612 39.9673 62.3674 39.6734C62.0735 39.3795 61.6816 39.2162 61.2245 39.2162C60.7674 39.2489 60.3755 39.3795 60.0816 39.6734Z" fill="#418BCA"/>
<path d="M64.5547 42.9713V38.1387H65.3384V41.7632V41.8611H65.371L67.9833 38.1387H68.8649V42.9713H68.0812V39.3468V39.2489H68.0486L65.4363 42.9713H64.5547Z" fill="#418BCA"/>
<path d="M69.8779 40.3591C69.8779 38.8897 70.1392 37.8448 70.6943 37.1918C71.2167 36.5387 72.033 36.2122 73.0779 36.2122H74.2208V37.0285H73.0779C72.3269 37.0285 71.7392 37.1917 71.3473 37.5509C70.9555 37.9101 70.7269 38.4979 70.6616 39.2815C70.7596 39.1509 70.8902 39.0203 71.0534 38.8897C71.4126 38.6285 71.8371 38.4979 72.3596 38.4979C73.0126 38.4979 73.5677 38.7264 73.9922 39.1509C74.4167 39.5754 74.6453 40.1305 74.6453 40.7836C74.6453 41.4366 74.4167 41.9917 73.9922 42.4162C73.5351 42.8407 72.98 43.0693 72.2943 43.0693C71.5759 43.0693 71.0208 42.8407 70.5636 42.3509C70.0739 41.8611 69.8779 41.2081 69.8779 40.3591ZM71.0861 39.6734C70.7922 39.9673 70.629 40.3264 70.629 40.7836C70.629 41.2081 70.7922 41.5999 71.0861 41.8938C71.38 42.1877 71.7718 42.3509 72.2289 42.3509C72.6861 42.3509 73.0779 42.1877 73.3718 41.8938C73.6657 41.5999 73.829 41.2407 73.829 40.7836C73.829 40.3591 73.6657 39.9673 73.3718 39.6734C73.0779 39.3795 72.6861 39.2162 72.2289 39.2162C71.7718 39.2489 71.38 39.3795 71.0861 39.6734Z" fill="#418BCA"/>
<path d="M74.9717 42.9713L76.3105 38.1387H78.3349L79.6737 42.9713H78.8574L77.7472 38.857H76.8656L75.7554 42.9713H74.9717Z" fill="#418BCA"/>
<path d="M80.4902 42.9713V38.1387H81.2739V41.7632V41.8611H81.3066L83.9188 38.1387H84.8004V42.9713H84.0168V39.3468V39.2489H83.9841L81.3719 42.9713H80.4902Z" fill="#418BCA"/>
<path d="M86.5309 42.351C86.0411 41.8612 85.8125 41.2734 85.8125 40.5551C85.8125 39.8367 86.0411 39.2489 86.5309 38.7591C87.0207 38.2693 87.6084 38.0408 88.3268 38.0408C89.0452 38.0408 89.6329 38.2693 90.1227 38.7591C90.6125 39.2489 90.8411 39.8367 90.8411 40.5551C90.8411 41.2734 90.6125 41.8612 90.1227 42.351C89.6329 42.8408 89.0452 43.0693 88.3268 43.0693C87.6084 43.0693 86.988 42.8081 86.5309 42.351ZM87.086 39.2489C86.7594 39.5755 86.5962 40 86.5962 40.5224C86.5962 41.0449 86.7594 41.4693 87.086 41.7959C87.4125 42.1224 87.837 42.2857 88.3268 42.2857C88.8166 42.2857 89.2411 42.1224 89.5676 41.7959C89.8941 41.4693 90.0574 41.0449 90.0574 40.5224C90.0574 40 89.8941 39.5755 89.5676 39.2489C89.2411 38.9224 88.8166 38.7591 88.3268 38.7591C87.8043 38.7591 87.4125 38.9224 87.086 39.2489Z" fill="#418BCA"/>
<path d="M91.2656 38.857V38.1387H95.4126V38.857H93.7146V42.9713H92.9309V38.857H91.2656Z" fill="#418BCA"/>
<path d="M96.5553 42.351C96.0981 41.8612 95.8369 41.2734 95.8369 40.5551C95.8369 39.8367 96.0655 39.2489 96.5553 38.7591C97.0124 38.2693 97.6002 38.0408 98.3185 38.0408C99.0369 38.0408 99.592 38.2693 100.082 38.7591C100.539 39.2163 100.8 39.804 100.8 40.5224V40.8163H96.6532C96.7185 41.2734 96.8818 41.6326 97.2083 41.9265C97.5349 42.2204 97.8941 42.351 98.3512 42.351C98.841 42.351 99.2328 42.2204 99.592 41.9265C99.7553 41.7959 99.8532 41.6653 99.9512 41.502H100.735C100.604 41.7959 100.441 42.0571 100.245 42.3183C99.7553 42.8408 99.1022 43.102 98.3838 43.102C97.6002 43.0693 97.0451 42.8081 96.5553 42.351ZM96.6532 40.0979H99.9839C99.9186 39.7061 99.7553 39.4122 99.4614 39.151C99.1675 38.8898 98.8083 38.7591 98.3512 38.7591C97.8941 38.7591 97.5349 38.8898 97.241 39.151C96.8818 39.4122 96.7185 39.7387 96.6532 40.0979Z" fill="#418BCA"/>
<path d="M101.714 39.8693V38.1387H102.498V39.8366C102.498 40.1632 102.595 40.4244 102.791 40.5877C102.987 40.7509 103.249 40.8489 103.608 40.8489C104 40.8489 104.326 40.7836 104.62 40.6856C104.751 40.653 104.881 40.5876 104.979 40.5223V38.1387H105.763V42.9713H104.979V41.1754C104.849 41.2734 104.718 41.3387 104.62 41.3713C104.326 41.5019 104 41.5672 103.575 41.5672C102.987 41.5672 102.53 41.404 102.236 41.1101C101.877 40.8162 101.714 40.3917 101.714 39.8693Z" fill="#418BCA"/>
<path d="M107.069 42.9713V38.1387H107.853V40.1305H110.563V38.1387H111.347V42.9713H110.563V40.8489H107.853V42.9713H107.069Z" fill="#418BCA"/>
<path d="M113.045 42.351C112.588 41.8612 112.359 41.2734 112.359 40.5551C112.359 39.8367 112.588 39.2489 113.045 38.7591C113.502 38.2693 114.057 38.0408 114.678 38.0408C115.07 38.0408 115.429 38.1061 115.69 38.2693C115.984 38.4326 116.18 38.5959 116.31 38.7591L116.408 38.8898V38.1061H117.192V42.9387H116.408V42.1551L116.31 42.2857C116.18 42.4489 115.984 42.6122 115.723 42.7755C115.429 42.9387 115.102 43.004 114.678 43.004C114.057 43.0693 113.502 42.8081 113.045 42.351ZM113.633 39.2489C113.306 39.5755 113.176 40 113.176 40.5224C113.176 41.0449 113.339 41.4693 113.633 41.7959C113.959 42.1224 114.351 42.2857 114.808 42.2857C115.265 42.2857 115.657 42.1224 115.984 41.7959C116.31 41.4693 116.441 41.0449 116.441 40.5224C116.441 40 116.278 39.5755 115.984 39.2489C115.657 38.9224 115.265 38.7591 114.808 38.7591C114.319 38.7591 113.927 38.9224 113.633 39.2489Z" fill="#418BCA"/>
<path d="M118.367 42.9714L119.347 41.2408C119.184 41.1755 119.02 41.0775 118.857 40.9469C118.53 40.653 118.367 40.2612 118.367 39.804C118.367 39.3469 118.53 38.9551 118.89 38.6285C119.216 38.302 119.673 38.1714 120.261 38.1714H122.449V43.004H121.665V41.4693H120.13L119.281 43.004H118.367V42.9714ZM119.412 39.1183C119.216 39.2816 119.118 39.5102 119.118 39.7714C119.118 40.0326 119.216 40.2612 119.412 40.4244C119.608 40.5877 119.869 40.6857 120.228 40.6857H121.632V38.8571H120.228C119.902 38.8571 119.608 38.9551 119.412 39.1183Z" fill="#418BCA"/>
<path d="M126.89 42.351C126.433 41.8612 126.204 41.2734 126.204 40.5551C126.204 39.8367 126.433 39.2489 126.89 38.7591C127.347 38.2693 127.935 38.0408 128.62 38.0408C129.404 38.0408 130.025 38.3346 130.514 38.8898C130.71 39.151 130.873 39.4122 130.939 39.7387H130.155C130.09 39.5755 129.992 39.4122 129.829 39.2489C129.535 38.9224 129.11 38.7591 128.588 38.7591C128.131 38.7591 127.739 38.9224 127.412 39.2489C127.086 39.5755 126.955 40 126.955 40.5224C126.955 41.0449 127.118 41.4693 127.445 41.7959C127.771 42.1224 128.163 42.2857 128.62 42.2857C129.143 42.2857 129.567 42.1224 129.894 41.7632C130.025 41.6 130.155 41.4367 130.22 41.2408H131.004C130.906 41.5673 130.776 41.8612 130.547 42.1551C130.057 42.7428 129.404 43.0367 128.62 43.0367C127.935 43.0693 127.347 42.8081 126.89 42.351Z" fill="#418BCA"/>
<path d="M131.951 42.9713V38.1387H132.735V41.7632V41.8611H132.767L135.38 38.1387H136.261V42.9713H135.478V39.3468V39.2489H135.445L132.833 42.9713H131.951Z" fill="#418BCA"/>
<path d="M137.959 42.351C137.502 41.8612 137.273 41.2734 137.273 40.5551C137.273 39.8367 137.502 39.2489 137.959 38.7591C138.416 38.2693 139.004 38.0408 139.69 38.0408C140.473 38.0408 141.094 38.3346 141.584 38.8898C141.78 39.151 141.943 39.4122 142.008 39.7387H141.224C141.159 39.5755 141.061 39.4122 140.898 39.2489C140.604 38.9224 140.18 38.7591 139.657 38.7591C139.2 38.7591 138.808 38.9224 138.482 39.2489C138.155 39.5755 138.024 40 138.024 40.5224C138.024 41.0449 138.188 41.4693 138.514 41.7959C138.841 42.1224 139.233 42.2857 139.69 42.2857C140.212 42.2857 140.637 42.1224 140.963 41.7632C141.094 41.6 141.224 41.4367 141.29 41.2408H142.073C141.975 41.5673 141.845 41.8612 141.616 42.1551C141.127 42.7428 140.473 43.0367 139.69 43.0367C139.004 43.0693 138.416 42.8081 137.959 42.351Z" fill="#418BCA"/>
<path d="M142.367 38.857V38.1387H146.514V38.857H144.816V42.9713H144.032V38.857H142.367Z" fill="#418BCA"/>
<path d="M147.69 42.351C147.233 41.8612 146.972 41.2734 146.972 40.5551C146.972 39.8367 147.2 39.2489 147.69 38.7591C148.147 38.2693 148.735 38.0408 149.453 38.0408C150.172 38.0408 150.727 38.2693 151.217 38.7591C151.674 39.2163 151.935 39.804 151.935 40.5224V40.8163H147.788C147.853 41.2734 148.017 41.6326 148.343 41.9265C148.67 42.2204 149.029 42.351 149.486 42.351C149.976 42.351 150.368 42.2204 150.727 41.9265C150.89 41.7959 150.988 41.6653 151.086 41.502H151.87C151.739 41.7959 151.576 42.0571 151.38 42.3183C150.89 42.8408 150.237 43.102 149.519 43.102C148.735 43.0693 148.147 42.8081 147.69 42.351ZM147.755 40.0979H151.086C151.021 39.7061 150.857 39.4122 150.564 39.151C150.27 38.8898 149.91 38.7591 149.453 38.7591C148.996 38.7591 148.637 38.8898 148.343 39.151C148.017 39.4122 147.821 39.7387 147.755 40.0979Z" fill="#418BCA"/>
<path d="M152.947 42.9713V38.1387H154.123L155.56 41.1428H155.788L157.225 38.1387H158.4V42.9713H157.617V39.1183V39.0203H157.584L156.147 42.0244H155.135L153.698 39.0203H153.666V39.1183V42.9713H152.947Z" fill="#418BCA"/>
<path d="M160.163 42.351C159.706 41.8612 159.478 41.2734 159.478 40.5551C159.478 39.8367 159.706 39.2489 160.163 38.7591C160.62 38.2693 161.176 38.0408 161.796 38.0408C162.188 38.0408 162.547 38.1061 162.808 38.2693C163.102 38.4326 163.298 38.5959 163.429 38.7591L163.527 38.8898V38.1061H164.31V42.9387H163.527V42.1551L163.429 42.2857C163.298 42.4489 163.102 42.6122 162.841 42.7755C162.547 42.9387 162.22 43.004 161.796 43.004C161.143 43.0693 160.62 42.8081 160.163 42.351ZM160.718 39.2489C160.392 39.5755 160.261 40 160.261 40.5224C160.261 41.0449 160.424 41.4693 160.718 41.7959C161.045 42.1224 161.437 42.2857 161.894 42.2857C162.351 42.2857 162.743 42.1224 163.069 41.7959C163.396 41.4693 163.527 41.0449 163.527 40.5224C163.527 40 163.363 39.5755 163.069 39.2489C162.743 38.9224 162.351 38.7591 161.894 38.7591C161.437 38.7591 161.045 38.9224 160.718 39.2489Z" fill="#418BCA"/>
</g>
<defs>
<clipPath id="clip0_2_486">
<rect width="166" height="48" fill="white"/>
</clipPath>
</defs>
</svg>
