<svg width="32" height="32" viewBox="0 0 32 32" fill="none" xmlns="http://www.w3.org/2000/svg">
<rect width="32" height="32" rx="16" fill="#EFF3F7"/>
<path fill-rule="evenodd" clip-rule="evenodd" d="M21.2935 9.99947C21.4888 9.80421 21.8054 9.80421 22.0006 9.99947C22.1959 10.1947 22.1959 10.5113 22.0006 10.7066L16.7071 16.0001L22.0006 21.2936C22.1959 21.4889 22.1959 21.8054 22.0006 22.0007C21.8054 22.196 21.4888 22.196 21.2935 22.0007L16 16.7072L10.7065 22.0007C10.5113 22.196 10.1947 22.196 9.99941 22.0007C9.80415 21.8054 9.80415 21.4889 9.99941 21.2936L15.2929 16.0001L9.99941 10.7066C9.80415 10.5113 9.80415 10.1947 9.99941 9.99947C10.1947 9.80421 10.5113 9.80421 10.7065 9.99947L16 15.293L21.2935 9.99947Z" fill="#707070"/>
</svg>
