<svg width="14" height="14" viewBox="0 0 14 14" fill="none" xmlns="http://www.w3.org/2000/svg">
<path fill-rule="evenodd" clip-rule="evenodd" d="M12.2935 0.999474C12.4887 0.804212 12.8053 0.804212 13.0006 0.999474C13.1958 1.19474 13.1958 1.51132 13.0006 1.70658L7.70707 7.00009L13.0006 12.2936C13.1958 12.4889 13.1958 12.8054 13.0006 13.0007C12.8053 13.196 12.4887 13.196 12.2935 13.0007L6.99996 7.70719L1.70646 13.0007C1.5112 13.196 1.19461 13.196 0.999352 13.0007C0.80409 12.8054 0.80409 12.4889 0.999352 12.2936L6.29286 7.00009L0.999353 1.70658C0.804091 1.51132 0.804091 1.19474 0.999353 0.999474C1.19462 0.804212 1.5112 0.804212 1.70646 0.999474L6.99996 6.29298L12.2935 0.999474Z" fill="#707070"/>
</svg>
