<svg width="72" height="72" viewBox="0 0 72 72" fill="none" xmlns="http://www.w3.org/2000/svg">
<rect width="72" height="72" rx="36" fill="#DFEBF6"/>
<g clip-path="url(#clip0_3016_9115)">
<path fill-rule="evenodd" clip-rule="evenodd" d="M36 36C32.4536 36 29.5695 33.1296 29.5695 29.6C29.5695 26.0704 32.4536 23.2 36 23.2C39.5464 23.2 42.4305 26.0704 42.4305 29.6C42.4305 33.1296 39.5464 36 36 36ZM42.0414 37.0767C44.5927 35.0335 46.0798 31.7295 45.5332 28.1119C44.8982 23.9151 41.3904 20.5568 37.1559 20.0672C31.3122 19.3904 26.3543 23.9184 26.3543 29.6C26.3543 32.624 27.7626 35.3183 29.9586 37.0767C24.5634 39.0943 20.6247 43.832 20.0074 50.2256C19.9174 51.1712 20.6585 52 21.6134 52C22.4317 52 23.1294 51.3856 23.2018 50.5744C23.8464 43.4336 29.3396 39.2 36 39.2C42.6604 39.2 48.1536 43.4336 48.7982 50.5744C48.8706 51.3856 49.5683 52 50.3866 52C51.3415 52 52.0826 51.1712 51.9926 50.2256C51.3753 43.832 47.4366 39.0943 42.0414 37.0767Z" fill="#AAC6E0"/>
</g>
<defs>
<clipPath id="clip0_3016_9115">
<rect width="32" height="32" fill="white" transform="translate(20 20)"/>
</clipPath>
</defs>
</svg>
