<svg width="137" height="38" viewBox="0 0 137 38" fill="none" xmlns="http://www.w3.org/2000/svg">
<g opacity="0.9">
<path d="M5.38332 21.1438C5.91739 21.2119 6.5617 21.2119 7.488 21.2119C9.9493 21.2119 12.1225 20.2531 12.1225 17.7562C12.1225 15.3318 9.9493 14.3712 7.23765 14.3712H5.38332V21.1438ZM5.38332 10.483H7.16475C10.0187 10.483 11.5515 9.30636 11.5515 7.52453C11.5515 5.7058 10.1601 4.74394 7.69927 4.74394C6.52437 4.74394 5.84624 4.81509 5.38332 4.8858V10.483ZM0 1.28653C1.42566 1.00017 4.31517 0.7854 7.02597 0.7854C10.3402 0.7854 12.3715 1.10602 14.12 2.13946C15.7942 3.03148 17.0068 4.67103 17.0068 6.84772C17.0068 8.9862 15.7582 10.9824 13.0496 11.9798V12.0514C15.7942 12.8007 17.8269 14.868 17.8269 17.9688C17.8269 20.1424 16.8276 21.8566 15.3282 23.068C13.5837 24.4584 10.6608 25.2424 5.88357 25.2424C3.2075 25.2424 1.21176 25.0654 0 24.8871V1.28653Z" fill="#0E2F84"/>
<path d="M26.1694 13.0494C26.1694 17.7568 28.3809 21.0719 32.0166 21.0719C35.6892 21.0719 37.793 17.5785 37.793 12.9075C37.793 8.59281 35.7226 4.8868 31.981 4.8868C28.308 4.8868 26.1694 8.38065 26.1694 13.0494ZM43.5321 12.7301C43.5321 20.6072 38.7539 25.3857 31.7319 25.3857C24.5984 25.3857 20.4277 20.0024 20.4277 13.1588C20.4277 5.9567 25.0275 0.57251 32.1224 0.57251C39.5028 0.57251 43.5321 6.10077 43.5321 12.7301Z" fill="#0E2F84"/>
<path d="M51.7329 13.0494C51.7329 17.7568 53.943 21.0719 57.5792 21.0719C61.2509 21.0719 63.3564 17.5785 63.3564 12.9075C63.3564 8.59281 61.2878 4.8868 57.5436 4.8868C53.8714 4.8868 51.7329 8.38065 51.7329 13.0494ZM69.0944 12.7301C69.0944 20.6072 64.3192 25.3857 57.2959 25.3857C50.1623 25.3857 45.9912 20.0024 45.9912 13.1588C45.9912 5.9567 50.5937 0.57251 57.6859 0.57251C65.0663 0.57251 69.0944 6.10077 69.0944 12.7301Z" fill="#0E2F84"/>
<path d="M72.6621 0.963623H78.0477V11.5879H78.1533C78.6889 10.6617 79.2587 9.80657 79.7915 8.95053L85.245 0.963623H91.9142L83.9634 11.1971L92.3428 24.9933H85.9965L80.1138 14.6193L78.0477 17.15V24.9933H72.6621V0.963623Z" fill="#0E2F84"/>
<path d="M97.1193 25.3858C95.3008 25.3858 93.9814 23.9953 93.9814 22.1072C93.9814 20.18 95.3008 18.7903 97.1913 18.7903C99.0784 18.7903 100.363 20.1453 100.363 22.1072C100.363 23.9953 99.0784 25.3858 97.1556 25.3858H97.1193Z" fill="#0E2F84"/>
<path d="M103.644 13.2995C103.644 10.7323 103.572 9.05811 103.5 7.56044H108.172L108.349 10.7679H108.492C109.383 8.23724 111.524 7.16821 113.197 7.16821C113.697 7.16821 113.945 7.16821 114.338 7.23939V12.3741C113.945 12.2656 113.483 12.1949 112.876 12.1949C110.881 12.1949 109.525 13.2639 109.167 14.9409C109.099 15.2966 109.063 15.7252 109.063 16.1531V24.9933H103.644V13.2995Z" fill="#0E2F84"/>
<path d="M133.839 19.3969C133.839 21.6781 133.911 23.5307 133.981 24.9932H129.276L129.027 22.5346H128.918C128.24 23.6036 126.603 25.3872 123.462 25.3872C119.935 25.3872 117.331 23.174 117.331 17.7921V7.55859H122.785V16.9356C122.785 19.4681 123.607 21.0013 125.497 21.0013C126.994 21.0013 127.851 19.9674 128.204 19.1114C128.348 18.7899 128.384 18.3617 128.384 17.9343V7.55859H133.839V19.3969Z" fill="#0E2F84"/>
<path d="M0.955954 34.3162H3.34692C3.26286 33.3263 2.64636 32.5421 1.58796 32.5421C1.17669 32.5421 0.818859 32.6567 0.491631 32.8012L0.33169 32.2908C0.696864 32.1312 1.13874 31.9941 1.62591 31.9941C3.24043 31.9941 4.06257 33.159 4.06257 34.6511C4.06257 36.3338 2.95073 37.2934 1.58796 37.2934C1.07754 37.2934 0.613219 37.1947 0.248047 37.027L0.392484 36.5015C0.68952 36.6386 1.11589 36.7377 1.49657 36.7377C2.63085 36.7377 3.30897 35.9152 3.35426 34.8495H0.955954V34.3162Z" fill="#0E2F84"/>
<path d="M8.19552 32.0774V37.2094H7.52516V32.6331H5.82738V34.1869C5.82738 35.2987 5.78168 36.5395 5.05828 37.0266C4.86814 37.1486 4.57111 37.2706 4.27407 37.2706L4.19043 36.7373C4.39566 36.6994 4.60905 36.5774 4.73105 36.4632C5.14232 36.0596 5.18027 35.062 5.18027 34.2399V32.0774H8.19552Z" fill="#0E2F84"/>
<path d="M11.9836 34.8029H9.98878V36.6532H12.2121V37.2089H9.32617V32.0769H12.0978V32.633H9.98878V34.2549H11.9836V34.8029Z" fill="#0E2F84"/>
<path d="M13.6682 32.0769V34.3536H13.8738L15.6328 32.0769H16.432L14.4907 34.4299C15.3357 34.5442 15.6633 35.0615 15.9294 35.7547C16.1199 36.2803 16.2648 36.752 16.4933 37.2089H15.7772C15.5948 36.8589 15.4499 36.4018 15.3129 35.9984C15.0771 35.3206 14.7494 34.8563 13.8815 34.8563H13.6682V37.2089H13.0137V32.0769H13.6682Z" fill="#0E2F84"/>
<path d="M22.3394 34.6128C22.4838 34.6507 22.6666 34.6658 22.8873 34.6658C23.6871 34.6658 24.1742 34.2779 24.1742 33.5695C24.1742 32.8918 23.6948 32.5642 22.9636 32.5642C22.6743 32.5642 22.4536 32.5874 22.3394 32.6176V34.6128ZM21.6768 32.1382C21.9966 32.0847 22.4157 32.0391 22.9486 32.0391C23.6034 32.0391 24.0829 32.1912 24.3876 32.4654C24.6691 32.709 24.8369 33.0823 24.8369 33.5389C24.8369 34.0036 24.6997 34.3688 24.4407 34.6357C24.0906 35.0085 23.5198 35.1991 22.8722 35.1991C22.6743 35.1991 22.4916 35.1914 22.3394 35.153V37.209H21.6768V32.1382Z" fill="#0E2F84"/>
<path d="M26.1679 34.6744C26.1679 35.7707 26.7619 36.7528 27.8048 36.7528C28.8555 36.7528 29.4495 35.7862 29.4495 34.6209C29.4495 33.6005 28.9166 32.5348 27.8126 32.5348C26.7163 32.5348 26.1679 33.5471 26.1679 34.6744ZM30.1501 34.5903C30.1501 36.3571 29.0766 37.2934 27.7669 37.2934C26.4115 37.2934 25.46 36.2428 25.46 34.6895C25.46 33.0599 26.4726 31.9941 27.8428 31.9941C29.2443 31.9941 30.1501 33.0676 30.1501 34.5903Z" fill="#0E2F84"/>
<path d="M31.6792 32.0769V34.2243H34.1611V32.0769H34.8316V37.2089H34.1611V34.8029H31.6792V37.2089H31.0166V32.0769H31.6792Z" fill="#0E2F84"/>
<path d="M36.6284 32.0769V34.2243H39.1104V32.0769H39.7807V37.2089H39.1104V34.8029H36.6284V37.2089H35.9658V32.0769H36.6284Z" fill="#0E2F84"/>
<path d="M41.3476 34.6744C41.3476 35.7707 41.9416 36.7528 42.9845 36.7528C44.0352 36.7528 44.6292 35.7862 44.6292 34.6209C44.6292 33.6005 44.0963 32.5348 42.9923 32.5348C41.8959 32.5348 41.3476 33.5471 41.3476 34.6744ZM45.3298 34.5903C45.3298 36.3571 44.2563 37.2934 42.9465 37.2934C41.5911 37.2934 40.6396 36.2428 40.6396 34.6895C40.6396 33.0599 41.6523 31.9941 43.0224 31.9941C44.424 31.9941 45.3298 33.0676 45.3298 34.5903Z" fill="#0E2F84"/>
<path d="M47.9274 34.8265H46.0469V34.3315H47.9274V34.8265Z" fill="#0E2F84"/>
<path d="M49.4517 36.7001C49.6038 36.7304 49.7789 36.7381 50.0074 36.7381C50.4187 36.7381 50.8373 36.6083 51.0886 36.3423C51.2637 36.1595 51.3706 35.9082 51.3706 35.5883C51.3706 35.1925 51.2028 34.9257 50.9515 34.751C50.6851 34.5679 50.3423 34.492 49.9772 34.492C49.8246 34.492 49.6189 34.5071 49.4517 34.5221V36.7001ZM51.6671 32.0781V32.6339H49.4517V34.0121C49.6116 33.9893 49.916 33.9742 50.0837 33.9742C50.5708 33.9742 51.0507 34.0807 51.4085 34.3165C51.7969 34.5679 52.0633 34.9718 52.0633 35.5728C52.0633 36.0526 51.9034 36.4186 51.6366 36.6846C51.2179 37.0959 50.5252 37.2558 49.8246 37.2558C49.3603 37.2558 49.0098 37.2252 48.7891 37.1951V32.0781H51.6671Z" fill="#0E2F84"/>
<path d="M53.5003 32.0769V34.2394C53.5003 35.0542 53.4848 35.7242 53.4395 36.4096L53.4546 36.4173C53.7132 35.8841 54.0331 35.3284 54.4065 34.7192L56.0663 32.0769H56.7285V37.2089H56.1042V35.024C56.1042 34.1937 56.1119 33.5845 56.165 32.9374L56.1422 32.9301C55.8908 33.4935 55.5407 34.0872 55.1907 34.658L53.5839 37.2089H52.876V32.0769H53.5003Z" fill="#0E2F84"/>
<path d="M58.5299 36.7001C58.682 36.7304 58.8571 36.7381 59.0856 36.7381C59.4969 36.7381 59.9155 36.6083 60.1668 36.3423C60.3418 36.1595 60.4487 35.9082 60.4487 35.5883C60.4487 35.1925 60.281 34.9257 60.0297 34.751C59.7633 34.5679 59.4205 34.492 59.0553 34.492C58.9028 34.492 58.6971 34.5071 58.5299 34.5221V36.7001ZM60.7453 32.0781V32.6339H58.5299V34.0121C58.6898 33.9893 58.9942 33.9742 59.1618 33.9742C59.649 33.9742 60.1288 34.0807 60.4867 34.3165C60.8751 34.5679 61.1415 34.9718 61.1415 35.5728C61.1415 36.0526 60.9816 36.4186 60.7147 36.6846C60.2961 37.0959 59.6033 37.2558 58.9028 37.2558C58.4385 37.2558 58.088 37.2252 57.8672 37.1951V32.0781H60.7453Z" fill="#0E2F84"/>
<path d="M65.47 32.0774V37.2094H64.7995V32.6331H63.1019V34.1869C63.1019 35.2987 63.0561 36.5395 62.3328 37.0266C62.1426 37.1486 61.8456 37.2706 61.5485 37.2706L61.4648 36.7373C61.6701 36.6994 61.8835 36.5774 62.0055 36.4632C62.4168 36.0596 62.4547 35.062 62.4547 34.2399V32.0774H65.47Z" fill="#0E2F84"/>
<path d="M67.2249 32.0769V34.2394C67.2249 35.0542 67.2097 35.7242 67.164 36.4096L67.1791 36.4173C67.4378 35.8841 67.7581 35.3284 68.131 34.7192L69.7905 32.0769H70.4529V37.2089H69.8289V35.024C69.8289 34.1937 69.8358 33.5845 69.8893 32.9374L69.8666 32.9301C69.6157 33.4935 69.2653 34.0872 68.9156 34.658L67.3085 37.2089H66.6006V32.0769H67.2249Z" fill="#0E2F84"/>
<path d="M72.0248 34.6744C72.0248 35.7707 72.6186 36.7528 73.6622 36.7528C74.7128 36.7528 75.3066 35.7862 75.3066 34.6209C75.3066 33.6005 74.7731 32.5348 73.6691 32.5348C72.5726 32.5348 72.0248 33.5471 72.0248 34.6744ZM76.0067 34.5903C76.0067 36.3571 74.9335 37.2934 73.6238 37.2934C72.2689 37.2934 71.3164 36.2428 71.3164 34.6895C71.3164 33.0599 72.3292 31.9941 73.6993 31.9941C75.1009 31.9941 76.0067 33.0676 76.0067 34.5903Z" fill="#0E2F84"/>
<path d="M77.7785 32.6404H76.2178V32.0769H80.0166V32.6404H78.4484V37.2089H77.7785V32.6404Z" fill="#0E2F84"/>
<path d="M18.5704 32.6404H17.0098V32.0769H20.8088V32.6404H19.2407V37.2089H18.5704V32.6404Z" fill="#0E2F84"/>
<path d="M83.3326 34.8029H81.3379V36.6532H83.5617V37.2089H80.6748V32.0769H83.4465V32.633H81.3379V34.2549H83.3326V34.8029Z" fill="#0E2F84"/>
<path d="M84.9469 32.0769V33.7065C84.9469 34.4071 85.3124 34.8029 86.0358 34.8029C86.3937 34.8029 86.7825 34.6812 87.0486 34.5136V32.0769H87.7185V37.2089H87.0486V35.0314H87.0335C86.6756 35.237 86.249 35.3508 85.7999 35.3508C85.1224 35.3508 84.2852 35.0615 84.2852 33.8052V32.0769H84.9469Z" fill="#0E2F84"/>
<path d="M89.513 32.0769V34.2243H91.9953V32.0769H92.6652V37.2089H91.9953V34.8029H89.513V37.2089H88.8506V32.0769H89.513Z" fill="#0E2F84"/>
<path d="M96.3215 35.0768L95.8195 33.5998C95.705 33.2648 95.6289 32.9604 95.5528 32.6634H95.5377C95.4616 32.9677 95.3779 33.2803 95.2785 33.592L94.7759 35.0768H96.3215ZM94.6387 35.595L94.1059 37.2091H93.4209L95.1647 32.0767H95.9635L97.7148 37.2091H97.0072L96.4586 35.595H94.6387Z" fill="#0E2F84"/>
<path d="M101.017 32.6103C100.903 32.5875 100.69 32.5496 100.393 32.5496C99.7379 32.5496 99.1825 32.8009 99.1825 33.5088C99.1825 34.1257 99.7304 34.4836 100.454 34.4836C100.675 34.4836 100.888 34.4836 101.017 34.4758V32.6103ZM98.2383 37.2091C98.3144 37.0724 98.383 36.9124 98.444 36.7448C98.6641 36.1584 98.8012 35.4428 99.2202 35.0242C99.3423 34.9021 99.4945 34.8112 99.6467 34.7651V34.7426C99.0152 34.6357 98.5126 34.1788 98.5126 33.4782C98.5126 33.029 98.695 32.6712 98.9843 32.4349C99.3039 32.1766 99.8065 32.0396 100.454 32.0396C100.888 32.0396 101.345 32.0771 101.68 32.1456V37.2091H101.017V34.9858H100.53C100.21 34.9858 99.9738 35.0544 99.7914 35.2372C99.441 35.595 99.2963 36.349 99.1139 36.8361C99.0604 36.9655 99.022 37.0724 98.9466 37.2091H98.2383Z" fill="#0E2F84"/>
<path d="M108.266 37.0418C108.022 37.1633 107.535 37.2853 106.911 37.2853C105.464 37.2853 104.375 36.3714 104.375 34.6887C104.375 33.0824 105.464 31.9934 107.055 31.9934C107.695 31.9934 108.098 32.1305 108.274 32.2219L108.114 32.7625C107.863 32.6405 107.505 32.5491 107.078 32.5491C105.875 32.5491 105.076 33.3182 105.076 34.6659C105.076 35.9226 105.799 36.7292 107.048 36.7292C107.451 36.7292 107.863 36.6456 108.129 36.5162L108.266 37.0418Z" fill="#0E2F84"/>
<path d="M109.679 32.0769V34.2394C109.679 35.0542 109.664 35.7242 109.618 36.4096L109.633 36.4173C109.892 35.8841 110.212 35.3284 110.585 34.7192L112.245 32.0769H112.908V37.2089H112.283V35.024C112.283 34.1937 112.291 33.5845 112.344 32.9374L112.321 32.9301C112.07 33.4935 111.72 34.0872 111.37 34.658L109.762 37.2089H109.055V32.0769H109.679Z" fill="#0E2F84"/>
<path d="M117.648 37.0418C117.403 37.1633 116.916 37.2853 116.292 37.2853C114.846 37.2853 113.757 36.3714 113.757 34.6887C113.757 33.0824 114.846 31.9934 116.437 31.9934C117.076 31.9934 117.48 32.1305 117.655 32.2219L117.495 32.7625C117.244 32.6405 116.886 32.5491 116.46 32.5491C115.256 32.5491 114.457 33.3182 114.457 34.6659C114.457 35.9226 115.18 36.7292 116.429 36.7292C116.832 36.7292 117.244 36.6456 117.51 36.5162L117.648 37.0418Z" fill="#0E2F84"/>
<path d="M119.713 32.6404H118.152V32.0769H121.951V32.6404H120.383V37.2089H119.713V32.6404Z" fill="#0E2F84"/>
<path d="M125.267 34.8029H123.272V36.6532H125.496V37.2089H122.609V32.0769H125.381V32.633H123.272V34.2549H125.267V34.8029Z" fill="#0E2F84"/>
<path d="M130.69 34.9555C130.653 34.2394 130.607 33.3793 130.614 32.7395H130.592C130.416 33.341 130.204 33.9807 129.944 34.689L129.039 37.1788H128.536L127.706 34.7343C127.462 34.0113 127.256 33.3487 127.112 32.7395H127.097C127.082 33.3793 127.044 34.2394 126.998 35.0085L126.861 37.2089H126.229L126.586 32.0769H127.432L128.308 34.5593C128.521 35.1913 128.696 35.7547 128.825 36.288H128.848C128.978 35.7699 129.16 35.2064 129.389 34.5593L130.302 32.0769H131.148L131.467 37.2089H130.82L130.69 34.9555Z" fill="#0E2F84"/>
<path d="M135.064 35.0768L134.562 33.5998C134.447 33.2648 134.371 32.9604 134.295 32.6634H134.28C134.204 32.9677 134.12 33.2803 134.021 33.592L133.518 35.0768H135.064ZM133.381 35.595L132.848 37.2091H132.163L133.907 32.0767H134.706L136.457 37.2091H135.749L135.201 35.595H133.381Z" fill="#0E2F84"/>
</g>
</svg>
